<?xml version="1.0" encoding="utf-8"?>
<!-- Generator: Adobe Illustrator 16.0.0, SVG Export Plug-In . SVG Version: 6.00 Build 0)  -->
<!DOCTYPE svg PUBLIC "-//W3C//DTD SVG 1.1//EN" "http://www.w3.org/Graphics/SVG/1.1/DTD/svg11.dtd">
<svg version="1.1" id="Layer_1" xmlns="http://www.w3.org/2000/svg" xmlns:xlink="http://www.w3.org/1999/xlink" x="0px" y="0px"
	 width="193.155px" height="241.714px" viewBox="0 0 193.155 241.714" enable-background="new 0 0 193.155 241.714"
	 xml:space="preserve" fill="#f3f3f3">
<g>
	<defs>
		<rect id="SVGID_1_" width="193.155" height="241.714"/>
	</defs>
	<clipPath id="SVGID_2_">
		<use xlink:href="#SVGID_1_"  overflow="visible"/>
	</clipPath>
	<path clip-path="url(#SVGID_2_)" d="M69.585,111.466H14.347c-7.21,0-14.099,6.031-14.099,13.466v56.517
		c0,7.437,6.889,13.465,14.099,13.465h55.238c7.216,0,14.102-6.028,14.102-13.465v-56.517
		C83.687,117.497,76.801,111.466,69.585,111.466 M69.585,181.448H14.347v-56.517h55.238V181.448z"/>
	<path clip-path="url(#SVGID_2_)" d="M164.415,152.803l26.596-41.337h-16.929l-19.745,30.711c-1.42,2.138-3.797,3.536-6.501,3.536
		h-1.248c-2.701,0-5.087-1.398-6.504-3.536l-19.683-30.711h-16.902l26.615,41.522l-28.395,41.925h17.203l21.786-32.198
		c1.417-2.134,3.797-3.538,6.497-3.538h0.31c2.691,0,5.074,1.404,6.5,3.538l21.906,32.198h17.233L164.415,152.803z"/>
	<path clip-path="url(#SVGID_2_)" d="M36.223,34.331l-7.944,13.448H69.51v22.271H14.369V13.533h61.325l7.971-13.466H14.369
		C7.162,0.067,0.271,6.1,0.271,13.533v56.516c0,7.437,6.891,13.466,14.098,13.466H69.51c7.213,0,14.106-6.029,14.106-13.466V34.331
		H36.223z"/>
	<path clip-path="url(#SVGID_2_)" d="M174.135-0.001H113.18v83.584h60.955c7.225,0,14.126-6.04,14.126-13.49v-15.79
		c0-7.447-4.471-13.488-11.699-13.488c7.229,0,11.699-6.037,11.699-13.483V13.489C188.261,6.039,181.359-0.001,174.135-0.001
		 M174.135,64.555c0,3.063-2.409,5.538-5.372,5.538h-41.457V47.789h41.457c2.963,0,5.372,2.483,5.372,5.538V64.555z M174.135,28.767
		c0,3.058-2.409,5.539-5.372,5.539h-41.457V13.489h41.457c2.963,0,5.372,2.475,5.372,5.535V28.767z"/>
	<path clip-path="url(#SVGID_2_)" d="M2.385,235.91c0.735,2.534,2.137,3.635,4.729,3.635c3.084,0,4.696-1.533,4.696-4.501
		c0-1.366-0.42-2.469-1.226-3.168c-0.771-0.634-0.945-0.7-3.855-1.533c-4.274-1.203-6.027-3.104-6.027-6.673
		c0-4.001,2.453-6.369,6.588-6.369c3.574,0,5.537,1.469,6.309,4.735l-2.385,0.602c-0.699-2.303-1.787-3.168-3.96-3.168
		c-2.452,0-3.89,1.5-3.89,4.067c0,2.436,1.228,3.668,4.732,4.67c2.874,0.833,3.364,1.033,4.382,1.802
		c1.331,1.032,1.997,2.667,1.997,4.902c0,4.401-2.559,6.804-7.324,6.804c-4.17,0-6.309-1.534-7.151-5.171L2.385,235.91z"/>
	<polygon clip-path="url(#SVGID_2_)" points="40.711,219.803 34.894,219.803 34.894,217.601 49.226,217.601 49.226,219.803 
		43.445,219.803 43.445,241.413 40.711,241.413 	"/>
	<path clip-path="url(#SVGID_2_)" d="M73.888,217.601v16.177c0,2.067,0.176,3.101,0.735,3.934c0.772,1.268,1.893,1.834,3.644,1.834
		c2.103,0,3.295-0.599,4.066-2.1c0.42-0.802,0.56-1.801,0.56-3.668v-16.177h2.734v16.177c0,2.969-0.279,4.233-1.26,5.503
		c-1.333,1.7-3.122,2.434-5.994,2.434c-3.014,0-4.977-0.866-6.202-2.802c-0.772-1.166-1.017-2.436-1.017-5.135v-16.177H73.888z"/>
	<path clip-path="url(#SVGID_2_)" d="M109.237,217.601h6.656c5.257-0.1,7.886,2.602,7.779,7.903v8.007
		c0.106,5.301-2.522,8.003-7.779,7.902h-6.656V217.601z M115.649,239.245c3.714,0.067,5.291-1.767,5.291-6.104v-7.304
		c0-4.303-1.577-6.137-5.291-6.069h-3.68v19.477H115.649z"/>
	<rect x="146.827" y="217.601" clip-path="url(#SVGID_2_)" width="2.731" height="23.813"/>
	<path clip-path="url(#SVGID_2_)" d="M172.683,225.504c0-2.901,0.489-4.633,1.683-5.967c1.332-1.535,3.152-2.237,5.781-2.237
		c2.805,0,4.766,0.835,6.063,2.602c0.981,1.304,1.367,2.936,1.367,5.603v8.006c0,2.902-0.491,4.635-1.683,5.97
		c-1.332,1.534-3.152,2.234-5.747,2.234c-2.839,0-4.802-0.833-6.097-2.602c-0.947-1.3-1.367-2.967-1.367-5.603V225.504z
		 M184.842,225.772c0-4.37-1.436-6.304-4.729-6.304c-3.261,0-4.698,1.934-4.698,6.304v7.472c0,4.367,1.438,6.301,4.698,6.301
		c3.293,0,4.729-1.934,4.729-6.301V225.772z"/>
</g>
</svg>
