<?xml version="1.0" encoding="utf-8"?>
<!-- Generator: Adobe Illustrator 16.0.0, SVG Export Plug-In . SVG Version: 6.00 Build 0)  -->
<!DOCTYPE svg PUBLIC "-//W3C//DTD SVG 1.1//EN" "http://www.w3.org/Graphics/SVG/1.1/DTD/svg11.dtd">
<svg version="1.1" id="Layer_1" xmlns="http://www.w3.org/2000/svg" xmlns:xlink="http://www.w3.org/1999/xlink" x="0px" y="0px"
	 width="129.37px" height="130.715px" viewBox="0 0 129.37 130.715" enable-background="new 0 0 129.37 130.715"
	 xml:space="preserve">
<g>
	<defs>
		<rect id="SVGID_1_" width="129.37" height="130.715"/>
	</defs>
	<clipPath id="SVGID_2_">
		<use xlink:href="#SVGID_1_"  overflow="visible"/>
	</clipPath>
	<path clip-path="url(#SVGID_2_)" fill="#FFDD00" d="M46.5,74.753H9.455C4.62,74.753,0,78.798,0,83.783v37.9
		c0,4.989,4.62,9.031,9.455,9.031H46.5c4.839,0,9.457-4.042,9.457-9.031v-37.9C55.957,78.798,51.339,74.753,46.5,74.753
		 M46.5,121.684H9.456v-37.9H46.5V121.684z"/>
	<path clip-path="url(#SVGID_2_)" fill="#FFDD00" d="M110.096,102.475l17.836-27.723h-11.353l-13.242,20.597
		c-0.952,1.433-2.546,2.371-4.359,2.371H98.14c-1.811,0-3.411-0.938-4.361-2.371L80.579,74.752H69.243l17.85,27.847l-19.042,28.115
		h11.536l14.611-21.593c0.949-1.43,2.546-2.372,4.356-2.372h0.208c1.805,0,3.403,0.942,4.358,2.372l14.691,21.593h11.558
		L110.096,102.475z"/>
	<path clip-path="url(#SVGID_2_)" fill="#FFDD00" d="M24.126,23.023l-5.329,9.019h27.652v14.935H9.47V9.076h41.126l5.346-9.031H9.47
		c-4.833,0-9.455,4.044-9.455,9.031v37.901c0,4.987,4.622,9.03,9.455,9.03h36.979c4.838,0,9.46-4.043,9.46-9.03V23.023H24.126z"/>
	<path clip-path="url(#SVGID_2_)" fill="#FFDD00" d="M116.614,0H75.735v56.054h40.879c4.845,0,9.473-4.051,9.473-9.047v-10.59
		c0-4.994-2.998-9.045-7.845-9.045c4.847,0,7.845-4.049,7.845-9.042V9.045C126.087,4.05,121.459,0,116.614,0 M116.614,43.292
		c0,2.054-1.615,3.715-3.604,3.715H85.209V32.049h27.802c1.988,0,3.604,1.665,3.604,3.714V43.292z M116.614,19.292
		c0,2.051-1.615,3.715-3.604,3.715H85.209V9.045h27.802c1.988,0,3.604,1.66,3.604,3.712V19.292z"/>
</g>
</svg>
